<svg width="164" height="164" viewBox="0 0 164 164" fill="none" xmlns="http://www.w3.org/2000/svg">
<path d="M82 0C83.6729 0 85.2773 0.664421 86.4602 1.8471C87.6431 3.02978 88.3077 4.63384 88.3077 6.3064V23.1235C88.3077 24.796 87.6431 26.4001 86.4602 27.5828C85.2773 28.7654 83.6729 29.4299 82 29.4299C80.3271 29.4299 78.7227 28.7654 77.5398 27.5828C76.3569 26.4001 75.6923 24.796 75.6923 23.1235V6.3064C75.6923 4.63384 76.3569 3.02978 77.5398 1.8471C78.7227 0.664421 80.3271 0 82 0ZM82 134.57C83.6729 134.57 85.2773 135.235 86.4602 136.417C87.6431 137.6 88.3077 139.204 88.3077 140.877V157.694C88.3077 159.366 87.6431 160.97 86.4602 162.153C85.2773 163.336 83.6729 164 82 164C80.3271 164 78.7227 163.336 77.5398 162.153C76.3569 160.97 75.6923 159.366 75.6923 157.694V140.877C75.6923 139.204 76.3569 137.6 77.5398 136.417C78.7227 135.235 80.3271 134.57 82 134.57ZM0 81.9832C0 80.3106 0.664558 78.7066 1.84748 77.5239C3.0304 76.3412 4.63479 75.6768 6.30769 75.6768H23.1282C24.8011 75.6768 26.4055 76.3412 27.5884 77.5239C28.7713 78.7066 29.4359 80.3106 29.4359 81.9832C29.4359 83.6557 28.7713 85.2598 27.5884 86.4425C26.4055 87.6252 24.8011 88.2896 23.1282 88.2896H6.30769C4.63479 88.2896 3.0304 87.6252 1.84748 86.4425C0.664558 85.2598 0 83.6557 0 81.9832ZM134.564 81.9832C134.564 80.3106 135.229 78.7066 136.412 77.5239C137.594 76.3412 139.199 75.6768 140.872 75.6768H157.692C159.365 75.6768 160.97 76.3412 162.153 77.5239C163.335 78.7066 164 80.3106 164 81.9832C164 83.6557 163.335 85.2598 162.153 86.4425C160.97 87.6252 159.365 88.2896 157.692 88.2896H140.872C139.199 88.2896 137.594 87.6252 136.412 86.4425C135.229 85.2598 134.564 83.6557 134.564 81.9832ZM145.329 18.6669C146.51 19.8494 147.174 21.4523 147.174 23.1235C147.174 24.7947 146.51 26.3975 145.329 27.58L128.509 44.3971C127.931 45.0166 127.235 45.5136 126.461 45.8583C125.687 46.203 124.852 46.3883 124.005 46.4033C123.158 46.4182 122.317 46.2624 121.532 45.9453C120.746 45.6281 120.033 45.156 119.434 44.5571C118.835 43.9583 118.363 43.245 118.045 42.4597C117.728 41.6744 117.572 40.8333 117.587 39.9866C117.602 39.1398 117.788 38.3047 118.132 37.5312C118.477 36.7576 118.974 36.0614 119.594 35.484L136.414 18.6669C137.597 17.486 139.2 16.8226 140.872 16.8226C142.543 16.8226 144.147 17.486 145.329 18.6669ZM18.6708 18.6669C19.8535 17.486 21.4567 16.8226 23.1282 16.8226C24.7997 16.8226 26.4029 17.486 27.5856 18.6669L44.4062 35.484C45.5203 36.6795 46.1269 38.2607 46.0981 39.8945C46.0693 41.5283 45.4073 43.0871 44.2516 44.2425C43.0959 45.398 41.5368 46.0598 39.9027 46.0886C38.2685 46.1175 36.687 45.511 35.4913 44.3971L18.6708 27.58C17.4895 26.3975 16.8261 24.7947 16.8261 23.1235C16.8261 21.4523 17.4895 19.8494 18.6708 18.6669ZM44.4062 119.569C45.5874 120.752 46.2509 122.355 46.2509 124.026C46.2509 125.697 45.5874 127.3 44.4062 128.482L27.5856 145.299C26.3899 146.413 24.8084 147.02 23.1743 146.991C21.5401 146.962 19.981 146.3 18.8253 145.145C17.6697 143.989 17.0077 142.431 16.9788 140.797C16.95 139.163 17.5566 137.582 18.6708 136.386L35.4913 119.569C36.674 118.388 38.2772 117.725 39.9487 117.725C41.6203 117.725 43.2235 118.388 44.4062 119.569ZM119.594 119.569C120.777 118.388 122.38 117.725 124.051 117.725C125.723 117.725 127.326 118.388 128.509 119.569L145.329 136.386C145.949 136.964 146.446 137.66 146.791 138.434C147.136 139.207 147.321 140.042 147.336 140.889C147.351 141.736 147.195 142.577 146.878 143.362C146.561 144.147 146.088 144.861 145.489 145.46C144.89 146.058 144.177 146.53 143.391 146.848C142.606 147.165 141.765 147.321 140.918 147.306C140.071 147.291 139.236 147.105 138.462 146.761C137.688 146.416 136.992 145.919 136.414 145.299L119.594 128.482C118.413 127.3 117.749 125.697 117.749 124.026C117.749 122.355 118.413 120.752 119.594 119.569ZM82 42.0427C71.4049 42.0427 61.2438 46.2507 53.752 53.741C46.2602 61.2313 42.0513 71.3903 42.0513 81.9832C42.0513 92.5761 46.2602 102.735 53.752 110.225C61.2438 117.716 71.4049 121.924 82 121.924C92.5951 121.924 102.756 117.716 110.248 110.225C117.74 102.735 121.949 92.5761 121.949 81.9832C121.949 71.3903 117.74 61.2313 110.248 53.741C102.756 46.2507 92.5951 42.0427 82 42.0427Z" fill="#FEC638"/>
</svg>
